M48
;Layer_Color=9474304
;FILE_FORMAT=2:5
INCH,LZ
;TYPE=PLATED
T1F00S00C0.04016
T2F00S00C0.05512
T3F00S00C0.12598
%
T01
X-0027716Y-0046142
X-0017717
Y-0036142
X-0027716
Y-0026142
X-0017717
Y-0016142
X-0027716
Y-0006142
X-0017717
Y0003858
X-0027716
Y0013858
X-0017717
Y0023858
X-0027716
Y0033858
X-0017717
Y0043858
X-0027716
Y0053858
X-0017717
Y0063858
X-0027716
Y0073858
X-0017717
Y0083858
X-0027716
Y0093858
X-0017717
Y0103858
X-0027716
Y0113858
X-0017717
Y0123858
X-0027716
Y0133858
X-0017717
Y0143858
X-0027716
Y0153858
X-0017717
Y0163858
X-0027716
Y0173858
X-0017717
Y0183858
X-0027716
Y0193858
X-0017717
Y0203858
X-0027716
Y0213858
X-0017717
Y0223858
X-0027716
Y0233858
X-0017717
Y0243858
X-0027716
Y0253858
X-0017717
Y0263858
X-0027716
Y0273858
X-0017717
Y0283858
X-0027716
Y0293858
X-0017717
T02
X0588583Y-003937
X0608268
X0588583Y0035433
Y0055118
X0568898Y-003937
X0549213
X0529528
X0509842
X0490158
X0470472
X0450787
X0431102
X0399606Y-003937
X0379921
X0360236
X0340551
X0320866
X0301181
X0281496
X0261811
X0242126
X0222441
X0194882Y-003937
X0175197
X0155512
X0135827
X0116142
X0096457
X0076772
X0057087
X0037402
X0017717
X0588583Y0074803
Y0094488
Y0114173
Y0133858
Y0153543
Y0173228
Y0192913
Y0212598
X0586614Y0287402
X0606299
X0566929
X0547244
X0527559
X0507874
X0488189
X0468504
X0448819
X0429134
X0395669
X0375984
X0356299
X0336614
X0316929
X0297244
X0277559
X0257874
X0238189
X0218504
X0187008
X0167323
X0147638
X0127953
X0108268
X0088583
X0068898
X0049213
X0029528
X0009843
T03
X0598425Y0
X0
X0598425Y0244094
X0Y0248031
M30
