G04*
G04 #@! TF.GenerationSoftware,Altium Limited,Altium Designer,20.0.11 (256)*
G04*
G04 Layer_Physical_Order=2*
G04 Layer_Color=16711680*
%FSLAX25Y25*%
%MOIN*%
G70*
G01*
G75*
%ADD10C,0.01500*%
%ADD18C,0.08268*%
%ADD19C,0.19685*%
%ADD20C,0.06378*%
D10*
X41339Y279528D02*
X49213Y287402D01*
X-13780Y279528D02*
X41339D01*
X-27716Y283858D02*
X-23178Y279319D01*
X-13988D01*
X-13780Y279528D01*
X-15836Y289319D02*
X-15786Y289370D01*
X6043D01*
X8011Y287402D01*
X-23178Y289319D02*
X-15836D01*
X8011Y287402D02*
X9843D01*
X-27716Y293858D02*
X-23178Y289319D01*
X-17717Y293858D02*
X23071D01*
X29528Y287402D01*
X-23028Y-54239D02*
X-22149Y-55118D01*
X70960D01*
X-23028Y-54239D02*
Y-30831D01*
X86708Y-39370D02*
X96457D01*
X70960Y-55118D02*
X86708Y-39370D01*
X153543Y-39370D02*
X155512Y-41339D01*
X-17717Y-36142D02*
X-9134Y-27559D01*
X141732D02*
X153543Y-39370D01*
X-9134Y-27559D02*
X141732D01*
X-27716Y-26142D02*
X-23028Y-30831D01*
X525591Y98425D02*
Y101776D01*
X-17717Y103858D02*
X523509D01*
X525591Y101776D01*
Y98425D02*
X588583Y35433D01*
X537402Y106299D02*
X588583Y55118D01*
X-5906Y106299D02*
X537402D01*
X-8154Y108547D02*
X-5906Y106299D01*
X-27716Y103858D02*
X-23028Y108547D01*
X-8154D01*
X555497Y111240D02*
X557087Y109650D01*
X-17717Y113858D02*
X-16322D01*
X-13704Y111240D02*
X555497D01*
X-16322Y113858D02*
X-13704Y111240D01*
X557087Y106299D02*
Y109650D01*
Y106299D02*
X588583Y74803D01*
X564961Y118110D02*
X588583Y94488D01*
X-13780Y118110D02*
X564961D01*
X-27716Y113858D02*
X-23028Y118547D01*
X-14217D01*
X-13780Y118110D01*
X-17717Y123858D02*
X578898D01*
X588583Y114173D01*
X588489Y133858D02*
X588583D01*
X584552Y129921D02*
X588489Y133858D01*
X-13780Y129921D02*
X584552D01*
X-17717Y133858D02*
X537402D01*
X553150Y149606D01*
X541339Y141732D02*
X572835Y173228D01*
X509842Y141732D02*
X541339D01*
X-27716Y133858D02*
X-23028Y138547D01*
X506658D02*
X509842Y141732D01*
X-23028Y138547D02*
X506658D01*
X-27716Y123858D02*
X-23028Y128547D01*
X-15154D01*
X-13780Y129921D01*
X588489Y153543D02*
X588583D01*
X584552Y149606D02*
X588489Y153543D01*
X553150Y149606D02*
X584552D01*
X-17717Y143858D02*
X539528D01*
X525153Y149169D02*
X588583Y212598D01*
X-25153Y149169D02*
X525153D01*
X539528Y143858D02*
X588583Y192913D01*
X-27716Y143858D02*
X-26687Y144887D01*
Y147635D02*
X-25153Y149169D01*
X-26687Y144887D02*
Y147635D01*
X572835Y173228D02*
X588583D01*
D18*
X187008Y287402D02*
D03*
X167323D02*
D03*
X147638D02*
D03*
X127953D02*
D03*
X108268D02*
D03*
X88583D02*
D03*
X68898D02*
D03*
X49213D02*
D03*
X29528D02*
D03*
X9843D02*
D03*
X218504D02*
D03*
X238189D02*
D03*
X257874D02*
D03*
X277559D02*
D03*
X297244D02*
D03*
X316929D02*
D03*
X336614D02*
D03*
X356299D02*
D03*
X375984D02*
D03*
X395669D02*
D03*
X606299D02*
D03*
X586614D02*
D03*
X566929D02*
D03*
X547244D02*
D03*
X527559D02*
D03*
X507874D02*
D03*
X488189D02*
D03*
X468504D02*
D03*
X448819D02*
D03*
X429134D02*
D03*
X588583Y35433D02*
D03*
Y55118D02*
D03*
Y74803D02*
D03*
Y94488D02*
D03*
Y114173D02*
D03*
Y133858D02*
D03*
Y153543D02*
D03*
Y173228D02*
D03*
Y192913D02*
D03*
Y212598D02*
D03*
X608268Y-39370D02*
D03*
X588583D02*
D03*
X568898D02*
D03*
X549213D02*
D03*
X529528D02*
D03*
X509842D02*
D03*
X490158D02*
D03*
X470472D02*
D03*
X450787D02*
D03*
X431102D02*
D03*
X222441Y-39370D02*
D03*
X242126D02*
D03*
X261811D02*
D03*
X281496D02*
D03*
X301181D02*
D03*
X320866D02*
D03*
X340551D02*
D03*
X360236D02*
D03*
X379921D02*
D03*
X399606D02*
D03*
X17717Y-39370D02*
D03*
X37402D02*
D03*
X57087D02*
D03*
X76772D02*
D03*
X96457D02*
D03*
X116142D02*
D03*
X135827D02*
D03*
X155512D02*
D03*
X175197D02*
D03*
X194882D02*
D03*
D19*
X598425Y244094D02*
D03*
Y0D02*
D03*
X0D02*
D03*
Y248031D02*
D03*
D20*
X-17717Y-46142D02*
D03*
X-27716D02*
D03*
X-17717Y-36142D02*
D03*
X-27716D02*
D03*
X-17717Y-26142D02*
D03*
X-27716D02*
D03*
X-17717Y-16142D02*
D03*
X-27716D02*
D03*
X-17717Y-6142D02*
D03*
X-27716D02*
D03*
X-17717Y3858D02*
D03*
X-27716D02*
D03*
X-17717Y13858D02*
D03*
X-27716D02*
D03*
X-17717Y23858D02*
D03*
X-27716D02*
D03*
X-17717Y33858D02*
D03*
X-27716D02*
D03*
X-17717Y43858D02*
D03*
X-27716D02*
D03*
X-17717Y53858D02*
D03*
X-27716D02*
D03*
X-17717Y63858D02*
D03*
X-27716D02*
D03*
X-17717Y73858D02*
D03*
X-27716D02*
D03*
X-17717Y83858D02*
D03*
X-27716D02*
D03*
X-17717Y93858D02*
D03*
X-27716D02*
D03*
X-17717Y103858D02*
D03*
X-27716D02*
D03*
X-17717Y113858D02*
D03*
X-27716D02*
D03*
X-17717Y123858D02*
D03*
X-27716D02*
D03*
X-17717Y133858D02*
D03*
X-27716D02*
D03*
X-17717Y143858D02*
D03*
X-27716D02*
D03*
X-17717Y153858D02*
D03*
X-27716D02*
D03*
X-17717Y163858D02*
D03*
X-27716D02*
D03*
X-17717Y173858D02*
D03*
X-27716D02*
D03*
X-17717Y183858D02*
D03*
X-27716D02*
D03*
X-17717Y193858D02*
D03*
X-27716D02*
D03*
X-17717Y203858D02*
D03*
X-27716D02*
D03*
X-17717Y213858D02*
D03*
X-27716D02*
D03*
X-17717Y223858D02*
D03*
X-27716D02*
D03*
X-17717Y233858D02*
D03*
X-27716D02*
D03*
X-17717Y243858D02*
D03*
X-27716D02*
D03*
X-17717Y253858D02*
D03*
X-27716D02*
D03*
X-17717Y263858D02*
D03*
X-27716D02*
D03*
X-17717Y273858D02*
D03*
X-27716D02*
D03*
X-17717Y283858D02*
D03*
X-27716D02*
D03*
X-17717Y293858D02*
D03*
X-27716D02*
D03*
M02*
